PathFileType	4	(X/Y/Z)	C:/Users/beibeiliu/ov580/test_trc/User2\sequence.18_training_dense_right.trc
DataRate	CameraRate	NumFrames	NumMarkers	Units	OrigDataRate	OrigDataStartFrame	OrigNumFrames
120	120	16	19	mm	120	1	57
Frame#	Time	ThumbCMC			ThumbMCP			ThumbIP			ThumbTip			IndexMCP			IndexPIP			IndexTip			MiddleMCP			MiddlePIP			MiddleTip			RingMCP			RingPIP			RingTip			PinkyMCP			PinkyPIP			PinkyTip			BackHand1			BackHand2			BackHand3	
		X0	Y0	Z0	X1	Y1	Z1	X2	Y2	Z2	X3	Y3	Z3	X4	Y4	Z4	X5	Y5	Z5	X6	Y6	Z6	X7	Y7	Z7	X8	Y8	Z8	X9	Y9	Z9	X10	Y10	Z10	X11	Y11	Z11	X12	Y12	Z12	X13	Y13	Z13	X14	Y14	Z14	X15	Y15	Z15	X16	Y16	Z16	X17	Y17	Z17	X18	Y18	Z18	
0	0	133.785	65.827	-30.4517	108.961	102.301	-42.3325	72.2672	110.445	-51.9665	46.3451	98.362	-52.9956	106.604	54.1479	-106.83	99.4668	64.0201	-135.268	96.5536	70.3863	-157.597	75.5033	39.2505	-103.424	62.586	47.5958	-130.508	43.3468	51.8845	-155.391	54.1418	40.4594	-87.8414	36.2881	49.6387	-107.113	17.2251	58.1479	-127.107	42.5088	57.0335	-58.2701	43.7354	89.1491	-47.6668	67.5958	90.2243	-27.0584	86.4413	18.0729	-45.163	105.896	4.73141	-18.506	126.164	24.6075	-44.5308	
1	0.00833333	134.557	60.8923	-42.7911	106.602	85.9378	-51.6286	68.5182	87.7856	-66.2816	43.7229	76.6508	-68.1979	116.937	38.0503	-114.719	112.866	44.2503	-144.209	103.369	46.775	-169.776	92.4071	19.2266	-111.888	75.5543	21.0833	-143.591	58.8641	18.7855	-167.73	68.1526	15.6533	-100.015	47.9099	15.9172	-113.419	31.8615	21.4633	-139.747	51.948	30.9333	-69.1624	46.2125	64.2448	-61.8225	73.009	68.6877	-43.79	100.403	3.32103	-51.0322	119.253	-3.91209	-22.5735	137.622	16.2715	-52.5936	
2	0.0166667	139.744	57.3512	-45.2462	103.603	72.4427	-62.4158	68.3399	69.3907	-78.5242	48.9955	49.9333	-80.6034	129.225	26.3215	-121.255	127.298	31.9965	-147.093	118.514	30.8824	-173.56	107.524	2.24265	-123.04	95.409	0.229018	-150.791	80.0018	-6.75834	-177.317	84.3894	-7.03054	-105.192	69.6677	-7.59859	-124.326	51.7713	-8.99911	-148.758	63.2334	8.1121	-81.1133	50.6803	37.4918	-75.4655	70.7977	51.7471	-57.3083	114.462	-8.95273	-56.8644	130.316	-12.9029	-27.7766	148.859	10.1769	-54.039	
3	0.025	136.076	57.0808	-50.4277	99.4946	66.0323	-67.2256	67.5785	48.9076	-86.5978	51.2504	26.537	-90.6154	142.359	26.5249	-121.958	138.394	30.0199	-153.703	132.144	26.3216	-178.076	125.238	-7.39141	-123.077	115.142	-12.7213	-154.799	104.493	-20.5642	-180.138	106.727	-19.0318	-112.558	91.6397	-25.8068	-134.071	78.559	-27.9251	-157.864	79.5873	-10.5536	-87.2639	59.2769	13.7967	-86.0849	74.2081	35.9064	-62.2688	133.399	-12.2524	-60.6968	144.277	-10.4332	-26.6499	158.604	16.8167	-58.6207	
4	0.0333333	128.639	59.9591	-49.9122	92.5579	57.3531	-67.5146	67.3188	35.4365	-88.5901	59.4956	7.42491	-94.1705	147.61	33.575	-123.584	145.76	39.3065	-148.51	140.674	35.192	-175.607	143.593	2.91485	-120.822	135.925	-6.33287	-156.004	131.278	-14.5616	-181.153	127.379	-16.5582	-109.738	116.99	-25.4572	-138.905	107.32	-33.2429	-163.973	97.7007	-21.9891	-88.2027	68.5915	0.151286	-89.9573	76.2486	20.283	-65.4824	146.404	-7.20085	-56.9185	155.597	-7.23443	-25.2183	161.403	23.3823	-50.7363	
5	0.0416667	117.883	62.7575	-45.0567	86.1117	52.6681	-63.4894	67.7006	29.5635	-83.1908	66.2487	1.80217	-92.9377	145.296	50.8717	-116.588	143.564	50.7264	-145.534	142.613	57.7347	-172.818	150.083	14.8405	-117.531	147.751	7.22622	-149.484	146.344	2.59305	-177.303	140.295	-5.74555	-112.222	135.232	-17.1984	-134.888	128.851	-19.9182	-161.23	110.68	-22.5266	-91.8585	81.7994	-10.5568	-95.0642	76.3192	10.8028	-65.2158	152.394	-0.565681	-56.0348	159.803	6.62817	-25.1749	159.001	36.7374	-49.4526	
6	0.05	108.337	62.5306	-37.4675	78.0624	51.3128	-61.8581	68.2362	23.5052	-88.9691	76.0298	-3.74454	-98.0465	140.5	65.0734	-109.546	138.5	73.3305	-137.481	140.186	72.0378	-163.849	154.594	36.8368	-113.699	155.607	32.222	-145.073	159.127	27.8459	-174.669	152.61	7.36114	-108.688	151.262	0.455081	-133.171	149.725	-2.99548	-159.488	129.657	-12.2156	-91.3981	94.9189	-14.778	-97.5011	83.336	2.04282	-69.289	158.52	17.4976	-49.7857	161.068	21.7966	-18.4969	152.738	52.3937	-41.8898	
7	0.0583333	95.4299	60.3692	-28.1711	75.005	44.1556	-61.4939	77.0294	20.1105	-91.335	96.8832	-1.61126	-103.504	130.626	83.2005	-99.5458	130.229	89.6309	-129.235	131.723	97.7483	-154.823	155.015	58.8315	-106.876	159.496	62.143	-137.813	169.299	62.8035	-169.317	161.5	30.7412	-104.293	165.596	28.0197	-130.066	165.554	32.115	-155.527	147.513	4.39658	-90.8628	119.517	-5.83883	-106.766	95.7554	-5.14239	-79.8564	160.419	35.2767	-48.3053	159.647	34.1608	-10.6932	141.469	65.9614	-30.0555	
8	0.0666667	87.121	50.3967	-30.0469	72.2847	34.201	-62.8511	85.3679	18.4945	-92.6233	111.147	6.17496	-105.853	114.049	92.9406	-91.5711	111.428	105.219	-116.174	113.176	113.22	-138.885	145.219	81.7208	-94.6401	151.311	92.9269	-127.531	157.154	100.861	-150.217	157.771	59.7641	-91.9802	164.412	63.0936	-118.639	170.07	69.8664	-148.939	157.492	27.4568	-90.0473	134.569	12.1303	-109.643	116.122	-3.34613	-89.7186	157.204	49.5718	-40.0902	154.172	44.3231	-7.92063	126.436	68.6007	-21.85	
9	0.075	72.9497	43.328	-24.3458	67.573	26.8211	-63.5253	84.3281	17.1144	-93.9294	115.051	13.3826	-105.1	97.8691	94.6428	-85.8322	89.9803	106.131	-106.865	91.2935	119.209	-134.66	125.724	93.8332	-89.8348	132.504	105.914	-119.086	137.387	118.412	-140.916	146.348	71.8518	-86.193	151.248	79.4342	-111.652	155.945	89.4151	-139.182	154.55	40.8774	-85.9645	136.856	23.6365	-109.224	116.075	5.29276	-92.4004	139.31	57.5475	-33.4327	141.866	50.7565	-4.76159	112.498	69.9721	-16.2802	
10	0.0833333	65.4277	37.6202	-23.8295	58.045	21.5468	-63.1698	76.5135	11.0651	-94.1256	108.405	10.4393	-100.495	80.8905	87.2373	-80.2017	73.9362	101.23	-108.702	77.5674	110.4	-131.272	112.479	87.7178	-88.137	118.174	99.6891	-113.983	121.982	113.641	-140.094	134.821	70.6794	-87.3141	138.929	77.6853	-109.928	141.967	87.3302	-136.687	144.101	39.4504	-83.1056	128.183	22.4691	-106.513	108.174	0.337067	-87.5032	127.356	55.433	-29.4297	129.011	50.3111	1.93622	97.6141	64.1751	-14.6692	
11	0.0916667	53.9212	27.8184	-17.8796	50.9759	12.4098	-54.7546	70.5652	1.879	-90.256	100.445	-0.0491168	-97.8374	68.1782	75.6922	-84.1571	64.9512	85.6016	-111.157	62.9375	94.1266	-137.508	98.6498	74.7651	-86.9069	104.78	86.8467	-118.156	106.273	99.1588	-144.24	123.448	59.355	-87.1174	128.739	63.7434	-111.152	129.476	72.6864	-140.992	129.458	30.6963	-84.137	117.195	6.7369	-104.129	101.338	-12.1629	-83.1208	120.312	48.7426	-34.1078	119.129	44.5643	0.588729	84.5525	59.3818	-18.6112	
12	0.1	44.7225	20.1174	-16.736	42.5246	-0.455168	-50.8384	59.0382	-15.1916	-79.905	87.4877	-18.2359	-91.0527	58.2512	59.9873	-89.4734	55.0883	63.3256	-115.584	49.3469	67.4967	-138.392	89.5549	60.0988	-94.9412	96.0816	64.7069	-126.269	97.6833	71.7079	-152.584	113.513	43.226	-90.4463	120.992	44.4569	-117.102	118.005	49.7024	-144.494	124.159	14.1597	-82.6783	108.665	-9.54766	-99.5584	91.3136	-25.4701	-76.916	111.446	40.9597	-33.5367	111.778	38.062	-1.11184	77.9991	52.3837	-16.4162	
13	0.108333	43.004	11.6137	-14.7429	35.1591	-15.7041	-43.1038	52.3824	-32.5088	-69.7834	77.4771	-39.8043	-80.6459	52.339	36.7942	-89.4128	45.1147	37.102	-117.456	37.7228	37.5586	-146.12	84.3687	36.2411	-94.2255	84.0071	36.9437	-126.26	85.0157	38.5605	-160.142	106.68	21.4037	-92.9635	104.322	19.7317	-116.794	107.435	16.9164	-143.142	117.566	-4.48933	-76.4545	100.459	-32.9832	-90.683	83.6908	-42.186	-69.1386	103.843	29.2025	-31.9702	106.42	32.9797	-3.70424	70.8783	44.1691	-18.5705	
14	0.116667	34.8716	7.37135	-8.77106	21.8113	-25.3204	-29.8288	37.7697	-47.9435	-54.9927	66.8845	-56.0287	-68.7056	38.0449	19.5713	-90.4435	30.8126	12.4984	-116.181	21.5789	9.45964	-138.6	67.6442	15.0331	-95.7917	69.2858	8.2469	-124.95	65.6671	3.63199	-157.673	94.2561	-2.16662	-90.4886	91.8975	-9.92241	-118.063	87.7634	-17.6419	-144.596	102.773	-23.7639	-71.4922	88.6045	-53.6791	-80.6637	69.5354	-59.185	-50.4883	99.9722	16.2125	-34.5547	100.684	28.1085	-4.29429	66.2203	34.354	-23.4654	
15	0.125	30.701	19.3385	-3.78328	12.6032	-13.1096	-17.2705	15.0998	-43.0681	-38.9704	38.4375	-58.4484	-51.6145	28.3482	18.5284	-84.8338	14.6872	10.3126	-108.607	4.61422	5.69265	-130.326	55.133	4.54819	-95.0203	45.9145	-4.73441	-123.435	40.9597	-12.7033	-149.069	72.5783	-13.6065	-88.2351	72.297	-27.4053	-108.342	61.8494	-38.7046	-134.71	83.3948	-36.3252	-66.5497	61.1786	-61.7388	-66.962	45.5257	-61.0004	-37.1439	96.3084	9.85004	-35.4057	104.419	22.3262	-10.2153	68.0104	36.5157	-21.3658	
